Coordinates
version=1
nRows=21
nColumns=12
inDegrees=yes

Units are S.I. units (second, meters, Newtons, ...)
Angles are in degrees

endheader
time	SC_y	SC_z	SC_x	AC_y	AC_z	AC_x	GH_y	GH_z	GH_yy	EL_x	PS_y
       0.0              -27.06          14.72          10.62          44.87          -2.05          9.628          67.49          83.77          19.86          40.82          60.62
   0.00207              -27.06          14.72          10.62          44.87         -2.049          9.629          67.47          83.76          19.84          40.83          60.63
  0.004139              -27.06          14.72          10.61          44.87         -2.048          9.629          67.45          83.75          19.82          40.83          60.64
  0.006209              -27.07          14.73          10.61          44.87         -2.046           9.63          67.42          83.74           19.8          40.84          60.65
  0.008278              -27.07          14.73          10.61          44.86         -2.045          9.631          67.39          83.73          19.78          40.85          60.66
   0.01035              -27.08          14.73          10.61          44.86         -2.043          9.632          67.36          83.72          19.75          40.85          60.67
   0.01242              -27.08          14.74          10.61          44.86         -2.042          9.633          67.33          83.71          19.73          40.86          60.68
   0.01449              -27.09          14.74          10.61          44.86          -2.04          9.634           67.3          83.69           19.7          40.87          60.69
   0.01656              -27.09          14.75          10.61          44.85         -2.038          9.635          67.26          83.68          19.67          40.88          60.71
   0.01863               -27.1          14.75          10.61          44.85         -2.036          9.636          67.23          83.67          19.64          40.89          60.72
    0.0207               -27.1          14.76          10.61          44.85         -2.034          9.638          67.18          83.65           19.6           40.9          60.73
   0.02277              -27.11          14.76          10.61          44.84         -2.032          9.639          67.14          83.63          19.57          40.91          60.75
   0.02484              -27.12          14.77          10.61          44.84          -2.03           9.64          67.09          83.61          19.53          40.93          60.77
    0.0269              -27.12          14.77          10.61          44.83         -2.027          9.642          67.04          83.59          19.49          40.94          60.79
   0.02897              -27.13          14.78           10.6          44.83         -2.024          9.644          66.99          83.57          19.44          40.95          60.81
   0.03104              -27.14          14.79           10.6          44.82         -2.021          9.646          66.92          83.55          19.39          40.97          60.83
   0.03311              -27.15           14.8           10.6          44.82         -2.018          9.648          66.86          83.52          19.33          40.99          60.85
   0.03518              -27.16          14.81           10.6          44.81         -2.014           9.65          66.79          83.49          19.28          41.01          60.88
   0.03725              -27.17          14.82           10.6          44.81          -2.01          9.652          66.71          83.46          19.21          41.03           60.9
   0.03932              -27.18          14.83           10.6           44.8         -2.006          9.655          66.62          83.43          19.14          41.05          60.93
   0.04139               -27.2          14.84          10.59          44.79         -2.001          9.658          66.53          83.39          19.06          41.07          60.97
